# xmcd CD database file
# Generated: Mit Jul 16 21:40:42 2003 by KSCD
# 
# Track frame offsets:
#       150
#       20228
#       45488
#       65120
#       87248
#       103868
#       126920
#       153229
#       171782
#       191191
#
# Disc length: 2992 seconds
#
# Revision: 5
# Processed by: cddbd v1.4PL0 Copyright (c) Steve Scherf et al.
# Submitted via: Kscd 1.3.3
#
DISCID=8c0bae0a
DTITLE=LST - do you love me too
DYEAR=1900
DGENRE=
TTITLE0=so long im gone
TTITLE1=trick bag
TTITLE2=do you loveme too
TTITLE3=I worry about you
TTITLE4=you cant judge a book by looking at the cover
TTITLE5=cant be my lover
TTITLE6=supagoodlovin
TTITLE7=ruby baby
TTITLE8=centerpiece
TTITLE9=take my hand
EXTD=
EXTT0=
EXTT1=
EXTT2=
EXTT3=
EXTT4=
EXTT5=
EXTT6=
EXTT7=
EXTT8=
EXTT9=
PLAYORDER=
